<svg width="256" height="256" viewBox="0 0 256 256" fill="none" xmlns="http://www.w3.org/2000/svg">
<ellipse cx="129.058" cy="128" rx="105.785" ry="106.843" fill="white"/>
<mask id="mask0_1150_6" style="mask-type:alpha" maskUnits="userSpaceOnUse" x="0" y="0" width="256" height="256">
<circle cx="128" cy="128" r="128" fill="white"/>
</mask>
<g mask="url(#mask0_1150_6)">
<path d="M210.598 0H45.4081C19.0464 0 -2.11572 20.8128 -2.11572 46.7456V209.254C-2.11572 235.187 19.0464 256 45.4081 256H210.592C236.583 256 258.116 235.187 258.116 209.254V46.7456C258.116 20.8128 236.96 0 210.598 0ZM170.51 63.9104C189.813 63.9104 205.405 79.2448 205.405 98.24C205.405 104.077 203.917 109.555 201.317 114.669C196.865 111.386 192.042 108.461 186.843 106.637C188.325 104.077 189.072 101.158 189.072 98.24C189.072 88.3776 180.902 80.3456 170.88 80.3456C160.851 80.3456 152.688 88.3776 152.688 98.24C152.688 101.158 153.429 104.077 154.917 106.637C149.718 108.461 144.518 111.021 140.437 114.669C137.466 109.555 136.349 104.077 136.349 98.2336C135.614 79.2448 151.206 63.9104 170.51 63.9104ZM85.4904 192.09C66.1934 192.09 50.6013 176.755 50.6013 157.766H67.3049C67.3049 167.622 75.4746 175.661 85.4968 175.661C95.519 175.661 103.689 167.622 103.689 157.766H120.392C120.392 176.755 104.794 192.09 85.4904 192.09ZM85.4904 143.885C63.2232 143.885 45.0313 125.99 45.0313 104.077C45.0313 82.1696 63.2232 63.9104 85.4968 63.9104C107.77 63.9104 126.333 81.8048 126.333 104.077C125.962 125.99 107.764 143.885 85.4904 143.885ZM170.51 192.09C148.236 192.09 129.674 174.195 129.674 152.282C129.674 130.01 147.865 112.115 170.51 112.115C192.783 112.115 210.975 130.01 210.975 152.288C210.975 174.195 192.783 192.09 170.51 192.09ZM194.636 151.923C194.636 165.069 183.872 175.29 170.51 175.29C157.147 175.29 146.377 164.704 146.377 151.923C146.377 138.771 157.147 128.179 170.51 128.179C183.872 128.55 194.636 139.136 194.636 151.923ZM109.252 104.077C109.252 117.229 98.4892 127.821 85.1263 127.821C71.757 127.821 60.9939 117.229 60.9939 104.077C60.9939 90.9312 71.757 80.3392 85.1263 80.3392C98.8597 80.3392 109.252 90.9312 109.252 104.083V104.077Z" fill="#D9B432"/>
</g>
</svg>
